<svg width="60" height="60" viewBox="0 0 60 60" fill="none" xmlns="http://www.w3.org/2000/svg">
<path d="M18.75 22.5C18.75 20.8424 19.4085 19.2527 20.5806 18.0806C21.7527 16.9085 23.3424 16.25 25 16.25C26.6576 16.25 28.2473 16.9085 29.4194 18.0806C30.5915 19.2527 31.25 20.8424 31.25 22.5C31.25 24.1576 30.5915 25.7473 29.4194 26.9194C28.2473 28.0915 26.6576 28.75 25 28.75C23.3424 28.75 21.7527 28.0915 20.5806 26.9194C19.4085 25.7473 18.75 24.1576 18.75 22.5ZM25 18.75C24.0054 18.75 23.0516 19.1451 22.3483 19.8483C21.6451 20.5516 21.25 21.5054 21.25 22.5C21.25 23.4946 21.6451 24.4484 22.3483 25.1517C23.0516 25.8549 24.0054 26.25 25 26.25C25.9946 26.25 26.9484 25.8549 27.6517 25.1517C28.3549 24.4484 28.75 23.4946 28.75 22.5C28.75 21.5054 28.3549 20.5516 27.6517 19.8483C26.9484 19.1451 25.9946 18.75 25 18.75Z" fill="#E85102"/>
<path d="M34.0575 8.75H25.9425C23.1925 8.75 21.0475 8.75 19.33 8.89C17.585 9.0325 16.1675 9.3275 14.8925 9.975C12.7751 11.0537 11.0537 12.7751 9.975 14.8925C9.325 16.1675 9.0325 17.585 8.89 19.33C8.75 21.05 8.75 23.19 8.75 25.9425V34.0575C8.75 36.4225 8.75 38.3375 8.84 39.92C8.84667 40.0817 8.85667 40.2483 8.87 40.42L8.8775 40.4975C8.965 41.6625 9.115 42.6825 9.3875 43.6125C9.53917 44.1358 9.735 44.6342 9.975 45.1075C11.0537 47.2249 12.7751 48.9463 14.8925 50.025C16.1675 50.675 17.585 50.9675 19.33 51.11C21.0475 51.25 23.19 51.25 25.9425 51.25H34.0575C36.8075 51.25 38.9525 51.25 40.67 51.11C42.415 50.9675 43.8325 50.6725 45.1075 50.025C47.2249 48.9463 48.9463 47.2249 50.025 45.1075C51.265 42.67 51.2575 39.725 51.25 37.005L51.2475 36.15L51.25 34.0575V25.9425C51.25 23.1925 51.25 21.0475 51.11 19.33C50.9675 17.585 50.6725 16.1675 50.025 14.8925C48.9463 12.7751 47.2249 11.0537 45.1075 9.975C43.8325 9.325 42.415 9.0325 40.67 8.89C38.9525 8.75 36.81 8.75 34.0575 8.75ZM11.3825 40.465L11.3675 40.29C11.265 38.72 12.875 37.165 14.065 36.0175C14.2567 35.8342 14.4333 35.6617 14.595 35.5C15.225 34.865 15.6525 34.5775 16.035 34.44C16.8664 34.1361 17.7786 34.1361 18.61 34.44C18.99 34.5775 19.4175 34.865 20.0475 35.5C20.685 36.1425 21.4375 37.0425 22.5075 38.325C22.8063 38.6844 23.1776 38.9768 23.597 39.183C24.0164 39.3893 24.4746 39.5048 24.9417 39.522C25.4088 39.5392 25.8743 39.4578 26.3078 39.283C26.7413 39.1082 27.133 38.8439 27.4575 38.5075L34.965 30.73C35.1825 30.505 35.41 30.25 35.645 29.9875C36.5075 29.0225 37.49 27.9225 38.6375 27.54C39.406 27.2843 40.2365 27.2843 41.005 27.54C42.9375 28.185 44.7525 30.3625 46.33 32.255C46.915 32.955 47.465 33.6175 47.98 34.1475C48.6075 34.8 48.75 35.175 48.7475 36.055C48.74 38.23 48.6975 39.8225 48.56 41.0675C48.4175 42.33 48.1775 43.2225 47.7975 43.9725C46.9585 45.6195 45.6195 46.9585 43.9725 47.7975C43.1075 48.2375 42.0575 48.4875 40.4675 48.6175C38.8625 48.75 36.82 48.75 34 48.75H26C23.18 48.75 21.1375 48.75 19.535 48.6175C17.9425 48.4875 16.8925 48.2375 16.0275 47.7975C14.27 46.9001 12.8674 45.435 12.0475 43.64C11.7025 42.8375 11.4975 41.8575 11.3825 40.465ZM48.75 31.35L46.4375 28.955C45.6553 28.1176 44.8414 27.3103 43.9975 26.535C43.29 25.915 42.6025 25.4375 41.795 25.17C40.5137 24.7435 39.1288 24.7435 37.8475 25.17C37.04 25.4375 36.3525 25.915 35.6475 26.535C34.96 27.135 34.1775 27.9475 33.205 28.955L25.6575 36.77C25.577 36.8538 25.4797 36.9196 25.372 36.9632C25.2643 37.0068 25.1485 37.0271 25.0324 37.0229C24.9163 37.0186 24.8024 36.9899 24.6981 36.9386C24.5939 36.8872 24.5017 36.8144 24.4275 36.725L24.39 36.68C23.365 35.4525 22.545 34.4675 21.8225 33.7375C21.0825 32.9925 20.3475 32.4125 19.4675 32.09C18.0815 31.5832 16.561 31.5832 15.175 32.09C14.295 32.415 13.5625 32.99 12.82 33.74C12.274 34.3026 11.7503 34.8864 11.25 35.49V26C11.25 23.18 11.25 21.1375 11.3825 19.535C11.5125 17.9425 11.7625 16.8925 12.2025 16.0275C13.0415 14.3805 14.3805 13.0415 16.0275 12.2025C16.8925 11.7625 17.9425 11.5125 19.535 11.3825C21.1375 11.25 23.18 11.25 26 11.25H34C36.82 11.25 38.8625 11.25 40.465 11.3825C42.0575 11.5125 43.1075 11.7625 43.9725 12.2025C45.6195 13.0415 46.9585 14.3805 47.7975 16.0275C48.2375 16.8925 48.4875 17.9425 48.6175 19.535C48.75 21.1375 48.75 23.18 48.75 26V31.35Z" fill="#E85102"/>
</svg>
